<svg width="100" height="100" viewBox="0 0 100 100" fill="none" xmlns="http://www.w3.org/2000/svg">
<path d="M24.4231 61H19.9883L28.0627 38.0646H33.1919L41.2775 61H36.8427L30.7169 42.7681H30.5377L24.4231 61ZM24.5687 52.0072H36.6635V55.3445H24.5687V52.0072Z" fill="url(#paint0_linear_25_25)"/>
<path d="M51.8353 53.0907L49.5255 53.3427C49.4602 53.1094 49.3459 52.8901 49.1826 52.6848C49.0239 52.4795 48.8093 52.3138 48.5386 52.1878C48.268 52.0618 47.9367 51.9988 47.5447 51.9988C47.0174 51.9988 46.5741 52.1132 46.2148 52.3418C45.8602 52.5705 45.6852 52.8668 45.6899 53.2307C45.6852 53.5434 45.7995 53.7977 46.0329 53.9937C46.2708 54.1896 46.6628 54.3506 47.2087 54.4766L49.0426 54.8686C50.0598 55.0879 50.8157 55.4355 51.3104 55.9115C51.8096 56.3874 52.0616 57.0104 52.0663 57.7803C52.0616 58.4569 51.8633 59.0542 51.4713 59.5721C51.084 60.0854 50.5451 60.4867 49.8545 60.776C49.1639 61.0653 48.3706 61.21 47.4747 61.21C46.1588 61.21 45.0996 60.9347 44.297 60.3841C43.4944 59.8288 43.0161 59.0565 42.8622 58.0673L45.3329 57.8293C45.4449 58.3146 45.6829 58.6809 46.0469 58.9282C46.4108 59.1755 46.8844 59.2992 47.4677 59.2992C48.0697 59.2992 48.5526 59.1755 48.9166 58.9282C49.2852 58.6809 49.4695 58.3752 49.4695 58.0113C49.4695 57.7033 49.3505 57.449 49.1126 57.2484C48.8793 57.0477 48.5153 56.8937 48.0207 56.7864L46.1868 56.4014C45.1556 56.1868 44.3927 55.8252 43.8981 55.3165C43.4034 54.8032 43.1585 54.1546 43.1631 53.3707C43.1585 52.7081 43.3381 52.1342 43.7021 51.6489C44.0707 51.1589 44.5817 50.781 45.2349 50.515C45.8929 50.2443 46.6511 50.109 47.5097 50.109C48.7696 50.109 49.7612 50.3773 50.4844 50.9139C51.2124 51.4506 51.6627 52.1762 51.8353 53.0907ZM62.6528 53.0907L60.343 53.3427C60.2777 53.1094 60.1634 52.8901 60 52.6848C59.8414 52.4795 59.6267 52.3138 59.3561 52.1878C59.0855 52.0618 58.7542 51.9988 58.3622 51.9988C57.8349 51.9988 57.3916 52.1132 57.0323 52.3418C56.6777 52.5705 56.5027 52.8668 56.5074 53.2307C56.5027 53.5434 56.617 53.7977 56.8503 53.9937C57.0883 54.1896 57.4803 54.3506 58.0262 54.4766L59.8601 54.8686C60.8773 55.0879 61.6332 55.4355 62.1278 55.9115C62.6271 56.3874 62.8791 57.0104 62.8838 57.7803C62.8791 58.4569 62.6808 59.0542 62.2888 59.5721C61.9015 60.0854 61.3626 60.4867 60.672 60.776C59.9814 61.0653 59.1881 61.21 58.2922 61.21C56.9763 61.21 55.9171 60.9347 55.1145 60.3841C54.3119 59.8288 53.8336 59.0565 53.6796 58.0673L56.1504 57.8293C56.2624 58.3146 56.5004 58.6809 56.8643 58.9282C57.2283 59.1755 57.7019 59.2992 58.2852 59.2992C58.8871 59.2992 59.3701 59.1755 59.7341 58.9282C60.1027 58.6809 60.287 58.3752 60.287 58.0113C60.287 57.7033 60.168 57.449 59.93 57.2484C59.6967 57.0477 59.3328 56.8937 58.8382 56.7864L57.0043 56.4014C55.9731 56.1868 55.2102 55.8252 54.7155 55.3165C54.2209 54.8032 53.9759 54.1546 53.9806 53.3707C53.9759 52.7081 54.1556 52.1342 54.5196 51.6489C54.8882 51.1589 55.3991 50.781 56.0524 50.515C56.7104 50.2443 57.4686 50.109 58.3272 50.109C59.5871 50.109 60.5787 50.3773 61.3019 50.9139C62.0299 51.4506 62.4801 52.1762 62.6528 53.0907ZM69.7326 61.21C68.6547 61.21 67.7238 60.986 66.9399 60.538C66.1606 60.0854 65.561 59.4461 65.1411 58.6202C64.7211 57.7896 64.5111 56.8121 64.5111 55.6875C64.5111 54.5816 64.7211 53.611 65.1411 52.7758C65.5657 51.9359 66.1583 51.2826 66.9189 50.816C67.6795 50.3447 68.5731 50.109 69.5996 50.109C70.2622 50.109 70.8875 50.2163 71.4755 50.431C72.0681 50.641 72.5907 50.9676 73.0433 51.4109C73.5006 51.8542 73.8599 52.4188 74.1212 53.1047C74.3825 53.786 74.5132 54.5979 74.5132 55.5405V56.3174H65.701V54.6096H72.0844C72.0797 54.1243 71.9747 53.6927 71.7694 53.3147C71.5641 52.9321 71.2771 52.6311 70.9085 52.4118C70.5445 52.1925 70.1199 52.0828 69.6346 52.0828C69.1167 52.0828 68.6617 52.2088 68.2698 52.4608C67.8778 52.7081 67.5722 53.0347 67.3528 53.4407C67.1382 53.842 67.0285 54.283 67.0239 54.7636V56.2544C67.0239 56.8797 67.1382 57.4163 67.3668 57.8643C67.5955 58.3076 67.9151 58.6482 68.3258 58.8862C68.7364 59.1195 69.217 59.2362 69.7676 59.2362C70.1363 59.2362 70.4699 59.1848 70.7685 59.0822C71.0672 58.9749 71.3261 58.8185 71.5455 58.6132C71.7648 58.4079 71.9304 58.1536 72.0424 57.8503L74.4082 58.1163C74.2589 58.7415 73.9742 59.2875 73.5543 59.7541C73.139 60.2161 72.607 60.5754 71.9584 60.832C71.3098 61.084 70.5679 61.21 69.7326 61.21ZM82.0252 50.249V52.2088H75.8448V50.249H82.0252ZM77.3707 47.6733H79.9044V57.7663C79.9044 58.1069 79.9557 58.3682 80.0584 58.5502C80.1657 58.7275 80.3057 58.8489 80.4784 58.9142C80.651 58.9795 80.8423 59.0122 81.0523 59.0122C81.211 59.0122 81.3556 59.0005 81.4863 58.9772C81.6216 58.9539 81.7242 58.9329 81.7942 58.9142L82.2212 60.895C82.0859 60.9417 81.8922 60.993 81.6403 61.049C81.3929 61.105 81.0896 61.1377 80.7303 61.147C80.0957 61.1657 79.5241 61.07 79.0155 60.86C78.5069 60.6454 78.1033 60.3141 77.8046 59.8661C77.5106 59.4181 77.366 58.8582 77.3707 58.1863V47.6733Z" fill="#A7F3D0"/>
<path d="M18.8262 49V38.249H21.283V40.0408H21.395C21.591 39.4202 21.9269 38.9419 22.4029 38.606C22.8835 38.2653 23.4318 38.095 24.0477 38.095C24.1877 38.095 24.344 38.102 24.5167 38.116C24.694 38.1254 24.841 38.1417 24.9576 38.165V40.4958C24.8503 40.4585 24.68 40.4258 24.4467 40.3978C24.218 40.3651 23.9964 40.3488 23.7818 40.3488C23.3198 40.3488 22.9045 40.4491 22.5359 40.6498C22.1719 40.8458 21.8849 41.1187 21.675 41.4687C21.465 41.8187 21.36 42.2223 21.36 42.6796V49H18.8262ZM41.4766 42.7006V49H38.9429V38.249H41.3647V40.0758H41.4906C41.738 39.4739 42.1323 38.9956 42.6735 38.641C43.2195 38.2863 43.8938 38.109 44.6963 38.109C45.4383 38.109 46.0845 38.2677 46.6352 38.585C47.1904 38.9023 47.6197 39.3619 47.923 39.9638C48.231 40.5658 48.3827 41.2961 48.378 42.1546V49H45.8442V42.5466C45.8442 41.828 45.6576 41.2657 45.2843 40.8598C44.9157 40.4538 44.4047 40.2508 43.7514 40.2508C43.3081 40.2508 42.9138 40.3488 42.5685 40.5448C42.2279 40.7361 41.9596 41.0138 41.7636 41.3777C41.5723 41.7417 41.4766 42.1826 41.4766 42.7006ZM54.3521 49.189C53.5075 49.189 52.7516 48.972 52.0843 48.538C51.417 48.1041 50.8897 47.4741 50.5024 46.6482C50.1151 45.8223 49.9215 44.8191 49.9215 43.6385C49.9215 42.4439 50.1175 41.436 50.5094 40.6148C50.9061 39.7889 51.4404 39.1659 52.1123 38.746C52.7842 38.3213 53.5332 38.109 54.3591 38.109C54.989 38.109 55.507 38.2163 55.9129 38.431C56.3189 38.641 56.6409 38.8953 56.8788 39.1939C57.1168 39.4879 57.3011 39.7655 57.4318 40.0268H57.5368V34.6653H60.0775V49H57.5858V47.3062H57.4318C57.3011 47.5675 57.1122 47.8451 56.8648 48.1391C56.6175 48.4284 56.2909 48.6757 55.8849 48.881C55.479 49.0863 54.968 49.189 54.3521 49.189ZM55.059 47.1102C55.5956 47.1102 56.0529 46.9655 56.4309 46.6762C56.8088 46.3822 57.0958 45.974 57.2918 45.4513C57.4878 44.9287 57.5858 44.3198 57.5858 43.6245C57.5858 42.9292 57.4878 42.325 57.2918 41.8117C57.1005 41.2984 56.8158 40.8994 56.4379 40.6148C56.0646 40.3301 55.605 40.1878 55.059 40.1878C54.4944 40.1878 54.0231 40.3348 53.6451 40.6288C53.2672 40.9228 52.9825 41.3287 52.7912 41.8467C52.5999 42.3646 52.5043 42.9572 52.5043 43.6245C52.5043 44.2964 52.5999 44.8961 52.7912 45.4233C52.9872 45.946 53.2742 46.3589 53.6521 46.6622C54.0348 46.9609 54.5037 47.1102 55.059 47.1102Z" fill="white"/>
<defs>
<linearGradient id="paint0_linear_25_25" x1="45.0835" y1="49.6991" x2="45.0835" y2="60.531" gradientUnits="userSpaceOnUse">
<stop stop-color="white"/>
<stop offset="1" stop-color="#A7F3D0"/>
</linearGradient>
</defs>
</svg>
