<svg width="67" height="29" viewBox="0 0 67 29" fill="none" xmlns="http://www.w3.org/2000/svg">
<path d="M8.3941 27H3.95932L12.0338 4.06456H17.1629L25.2485 27H20.8137L14.6879 8.76812H14.5087L8.3941 27ZM8.53969 18.0072H20.6346V21.3445H8.53969V18.0072Z" fill="url(#paint0_linear_25_21)"/>
<path d="M35.8063 19.0907L33.4965 19.3427C33.4312 19.1094 33.3169 18.8901 33.1536 18.6848C32.9949 18.4795 32.7803 18.3138 32.5096 18.1878C32.239 18.0618 31.9077 17.9988 31.5157 17.9988C30.9884 17.9988 30.5452 18.1132 30.1859 18.3418C29.8312 18.5705 29.6562 18.8668 29.6609 19.2307C29.6562 19.5434 29.7706 19.7977 30.0039 19.9937C30.2418 20.1896 30.6338 20.3506 31.1798 20.4766L33.0136 20.8686C34.0308 21.0879 34.7868 21.4355 35.2814 21.9115C35.7807 22.3874 36.0326 23.0104 36.0373 23.7803C36.0326 24.4569 35.8343 25.0542 35.4424 25.5721C35.0551 26.0854 34.5161 26.4867 33.8255 26.776C33.1349 27.0653 32.3417 27.21 31.4457 27.21C30.1299 27.21 29.0706 26.9347 28.268 26.3841C27.4654 25.8288 26.9872 25.0565 26.8332 24.0673L29.3039 23.8293C29.4159 24.3146 29.6539 24.6809 30.0179 24.9282C30.3818 25.1755 30.8555 25.2992 31.4387 25.2992C32.0407 25.2992 32.5236 25.1755 32.8876 24.9282C33.2562 24.6809 33.4405 24.3752 33.4405 24.0113C33.4405 23.7033 33.3216 23.449 33.0836 23.2484C32.8503 23.0477 32.4863 22.8937 31.9917 22.7864L30.1579 22.4014C29.1266 22.1868 28.3637 21.8252 27.8691 21.3165C27.3745 20.8032 27.1295 20.1546 27.1341 19.3707C27.1295 18.7081 27.3091 18.1342 27.6731 17.6489C28.0417 17.1589 28.5527 16.781 29.2059 16.515C29.8639 16.2443 30.6221 16.109 31.4807 16.109C32.7406 16.109 33.7322 16.3773 34.4555 16.9139C35.1834 17.4506 35.6337 18.1762 35.8063 19.0907ZM46.6238 19.0907L44.314 19.3427C44.2487 19.1094 44.1344 18.8901 43.9711 18.6848C43.8124 18.4795 43.5978 18.3138 43.3271 18.1878C43.0565 18.0618 42.7252 17.9988 42.3332 17.9988C41.8059 17.9988 41.3626 18.1132 41.0033 18.3418C40.6487 18.5705 40.4737 18.8668 40.4784 19.2307C40.4737 19.5434 40.588 19.7977 40.8214 19.9937C41.0593 20.1896 41.4513 20.3506 41.9972 20.4766L43.8311 20.8686C44.8483 21.0879 45.6042 21.4355 46.0989 21.9115C46.5981 22.3874 46.8501 23.0104 46.8548 23.7803C46.8501 24.4569 46.6518 25.0542 46.2598 25.5721C45.8725 26.0854 45.3336 26.4867 44.643 26.776C43.9524 27.0653 43.1591 27.21 42.2632 27.21C40.9473 27.21 39.8881 26.9347 39.0855 26.3841C38.2829 25.8288 37.8046 25.0565 37.6507 24.0673L40.1214 23.8293C40.2334 24.3146 40.4714 24.6809 40.8354 24.9282C41.1993 25.1755 41.6729 25.2992 42.2562 25.2992C42.8582 25.2992 43.3411 25.1755 43.7051 24.9282C44.0737 24.6809 44.258 24.3752 44.258 24.0113C44.258 23.7033 44.139 23.449 43.9011 23.2484C43.6678 23.0477 43.3038 22.8937 42.8092 22.7864L40.9753 22.4014C39.9441 22.1868 39.1812 21.8252 38.6866 21.3165C38.1919 20.8032 37.947 20.1546 37.9516 19.3707C37.947 18.7081 38.1266 18.1342 38.4906 17.6489C38.8592 17.1589 39.3702 16.781 40.0234 16.515C40.6814 16.2443 41.4396 16.109 42.2982 16.109C43.5581 16.109 44.5497 16.3773 45.2729 16.9139C46.0009 17.4506 46.4512 18.1762 46.6238 19.0907ZM53.7036 27.21C52.6257 27.21 51.6948 26.986 50.9109 26.538C50.1316 26.0854 49.532 25.4461 49.1121 24.6202C48.6921 23.7896 48.4821 22.8121 48.4821 21.6875C48.4821 20.5816 48.6921 19.611 49.1121 18.7758C49.5367 17.9359 50.1293 17.2826 50.8899 16.816C51.6505 16.3447 52.5441 16.109 53.5707 16.109C54.2333 16.109 54.8585 16.2163 55.4465 16.431C56.0391 16.641 56.5617 16.9676 57.0143 17.4109C57.4716 17.8542 57.8309 18.4188 58.0922 19.1047C58.3535 19.786 58.4842 20.5979 58.4842 21.5405V22.3174H49.672V20.6096H56.0554C56.0508 20.1243 55.9458 19.6927 55.7405 19.3147C55.5351 18.9321 55.2482 18.6311 54.8795 18.4118C54.5156 18.1925 54.0909 18.0828 53.6057 18.0828C53.0877 18.0828 52.6327 18.2088 52.2408 18.4608C51.8488 18.7081 51.5432 19.0347 51.3239 19.4407C51.1092 19.842 50.9996 20.283 50.9949 20.7636V22.2544C50.9949 22.8797 51.1092 23.4163 51.3379 23.8643C51.5665 24.3076 51.8861 24.6482 52.2968 24.8862C52.7074 25.1195 53.188 25.2362 53.7386 25.2362C54.1073 25.2362 54.4409 25.1848 54.7395 25.0822C55.0382 24.9749 55.2972 24.8185 55.5165 24.6132C55.7358 24.4079 55.9014 24.1536 56.0134 23.8503L58.3792 24.1163C58.2299 24.7415 57.9452 25.2875 57.5253 25.7541C57.11 26.2161 56.578 26.5754 55.9294 26.832C55.2808 27.084 54.5389 27.21 53.7036 27.21ZM65.9962 16.249V18.2088H59.8158V16.249H65.9962ZM61.3417 13.6733H63.8754V23.7663C63.8754 24.1069 63.9268 24.3682 64.0294 24.5502C64.1367 24.7275 64.2767 24.8489 64.4494 24.9142C64.622 24.9795 64.8133 25.0122 65.0233 25.0122C65.182 25.0122 65.3266 25.0005 65.4573 24.9772C65.5926 24.9539 65.6953 24.9329 65.7653 24.9142L66.1922 26.895C66.0569 26.9417 65.8632 26.993 65.6113 27.049C65.364 27.105 65.0607 27.1377 64.7014 27.147C64.0667 27.1657 63.4951 27.07 62.9865 26.86C62.4779 26.6454 62.0743 26.3141 61.7756 25.8661C61.4817 25.4181 61.337 24.8582 61.3417 24.1863V13.6733Z" fill="#A7F3D0"/>
<path d="M2.82622 15V4.24901H5.28299V6.04084H5.39498C5.59096 5.42023 5.92693 4.94195 6.40288 4.60598C6.8835 4.26534 7.43179 4.09503 8.04773 4.09503C8.18772 4.09503 8.34403 4.10202 8.51668 4.11602C8.694 4.12536 8.84099 4.14169 8.95764 4.16502V6.4958C8.85032 6.45847 8.68 6.42581 8.44669 6.39781C8.21805 6.36515 7.9964 6.34881 7.78175 6.34881C7.3198 6.34881 6.9045 6.44914 6.53587 6.64978C6.1719 6.84577 5.88493 7.11874 5.67495 7.46871C5.46497 7.81868 5.35998 8.2223 5.35998 8.67959V15H2.82622ZM25.4766 8.70059V15H22.9429V4.24901H25.3647V6.07584H25.4906C25.738 5.4739 26.1323 4.99561 26.6735 4.64097C27.2195 4.28634 27.8938 4.10902 28.6963 4.10902C29.4383 4.10902 30.0845 4.26768 30.6352 4.58498C31.1904 4.90228 31.6197 5.36191 31.923 5.96385C32.231 6.56579 32.3827 7.29606 32.378 8.15464V15H29.8442V8.54661C29.8442 7.82801 29.6576 7.26573 29.2843 6.85977C28.9157 6.4538 28.4047 6.25082 27.7514 6.25082C27.3081 6.25082 26.9138 6.34881 26.5685 6.5448C26.2279 6.73611 25.9596 7.01375 25.7636 7.37772C25.5723 7.74168 25.4766 8.18264 25.4766 8.70059ZM38.3521 15.189C37.5075 15.189 36.7516 14.972 36.0843 14.538C35.417 14.1041 34.8897 13.4741 34.5024 12.6482C34.1151 11.8223 33.9215 10.8191 33.9215 9.6385C33.9215 8.44395 34.1175 7.43604 34.5094 6.61479C34.9061 5.78887 35.4404 5.16592 36.1123 4.74596C36.7842 4.32134 37.5332 4.10902 38.3591 4.10902C38.989 4.10902 39.507 4.21635 39.9129 4.43099C40.3189 4.64097 40.6409 4.89528 40.8788 5.19392C41.1168 5.48789 41.3011 5.76554 41.4318 6.02684H41.5368V0.665348H44.0775V15H41.5858V13.3062H41.4318C41.3011 13.5675 41.1122 13.8451 40.8648 14.1391C40.6175 14.4284 40.2909 14.6757 39.8849 14.881C39.479 15.0863 38.968 15.189 38.3521 15.189ZM39.059 13.1102C39.5956 13.1102 40.0529 12.9655 40.4309 12.6762C40.8088 12.3822 41.0958 11.974 41.2918 11.4513C41.4878 10.9287 41.5858 10.3198 41.5858 9.62451C41.5858 8.92924 41.4878 8.32496 41.2918 7.81168C41.1005 7.29839 40.8158 6.89943 40.4379 6.61479C40.0646 6.33015 39.605 6.18783 39.059 6.18783C38.4944 6.18783 38.0231 6.33481 37.6451 6.62879C37.2672 6.92276 36.9825 7.32872 36.7912 7.84667C36.5999 8.36462 36.5043 8.95723 36.5043 9.62451C36.5043 10.2964 36.5999 10.8961 36.7912 11.4233C36.9872 11.946 37.2742 12.3589 37.6521 12.6622C38.0348 12.9609 38.5037 13.1102 39.059 13.1102Z" fill="white"/>
<defs>
<linearGradient id="paint0_linear_25_21" x1="29.0599" y1="15.3805" x2="29.0599" y2="19.6814" gradientUnits="userSpaceOnUse">
<stop stop-color="white"/>
<stop offset="1" stop-color="#A7F3D0"/>
</linearGradient>
</defs>
</svg>
